<?xml version="1.0" encoding="UTF-8"?>
<svg
  width="40"
  height="60"
  viewBox="0 0 40 60"
  xmlns="http://www.w3.org/2000/svg">
  <g
    fill="#000000"
    stroke="none"
    id="layer1">
      <path d="m 8,34 c -2.6823592,-0.115488 -2.5067528,4.298147 0.142436,4 3.285855,0 6.571709,0 9.857564,0 0,4.666667 0,9.333333 0,14 -3.333333,0 -6.666667,0 -10,0 -2.6823592,-0.115488 -2.5067528,4.298147 0.142436,4 7.952521,0 15.905043,0 23.857564,0 3.054215,-0.01934 2.215542,-4.562133 -0.427308,-4 -3.190897,0 -6.381795,0 -9.572692,0 0,-4.666667 0,-9.333333 0,-14 3.333333,0 6.666667,0 10,0 3.054215,-0.01934 2.215542,-4.562133 -0.427308,-4 C 23.715128,34 15.857564,34 8,34 Z"/>
  </g>
</svg>
