<?xml version="1.0" encoding="UTF-8"?>
<svg
  width="40"
  height="60"
  viewBox="0 0 40 60"
  xmlns="http://www.w3.org/2000/svg">
  <g
    fill="#000000"
    stroke="none"
    id="layer1">
      <path d="M 20,4 C 18.524078,3.9482448 17.879462,5.424535 18,6.6708204 18,12.447214 18,18.223607 18,24 c -0.12331,2.111262 3.153738,2.763107 3.847759,0.765367 C 22.108152,23.815351 21.962161,22.82531 22,21.853375 22,16.568916 22,11.284458 22,6 22.024108,4.9269185 21.073301,3.975958 20,4 Z"/>
      <path d="M 8,37 C 6.1168897,36.913629 5.2588211,39.63717 6.8577552,40.642335 9.2391545,42.428223 11.620554,44.214112 14.001953,46 12.001302,46 10.000651,46 8,46 c -2.6823549,-0.115489 -2.5067564,4.298141 0.1424306,4 3.7311694,0 7.4623384,0 11.1935074,0 2.222005,1.666667 4.44401,3.333333 6.666015,5 C 20.001302,55 14.000651,55 8,55 5.3176451,54.884511 5.4932436,59.298141 8.1424306,59 16.094954,59 24.047477,59 32,59 34.443409,58.969552 34.451279,55.77496 32.572537,54.930354 26.381583,50.286138 20.189424,45.64363 13.998047,41 15.998698,41 17.999349,41 20,41 23.054201,40.980666 22.215554,36.437879 19.572708,37 15.715139,37 11.857569,37 8,37 Z"/>
  </g>
</svg>
