<?xml version="1.0" encoding="UTF-8"?>
<svg
  width="40"
  height="60"
  viewBox="0 0 40 60"
  xmlns="http://www.w3.org/2000/svg">
  <g
    fill="#000000"
    stroke="none"
    id="layer1">
      <path d="M 8,4 C 5.3176408,3.8845118 5.4932472,8.2981468 8.142436,8 14.095608,8 20.048781,8 26.001953,8 19.601562,12.80013 13.201172,17.600261 6.8007812,22.400391 4.8336817,23.939956 6.8168794,26.388681 8.7833978,26 16.522265,26 24.261133,26 32,26 c 3.054215,-0.01934 2.215542,-4.562133 -0.427308,-4 -5.858215,0 -11.71643,0 -17.574645,0 C 20.398438,17.19987 26.798828,12.39974 33.199219,7.5996094 35.107581,6.1588053 33.279479,3.5661136 31.28782,4 23.525213,4 15.762607,4 8,4 Z"/>
      <path d="m 15.792969,34.009766 c -2.140647,0.251923 -1.941342,2.582064 -1.107115,3.959356 0.819559,1.844277 1.639118,3.688554 2.458677,5.532831 -4.504557,0.844401 -9.0091144,1.688802 -13.5136716,2.533203 -3.16708457,0.799675 -1.01766,4.919509 1.4846786,3.789713 4.566305,-0.856337 9.13261,-1.712673 13.698915,-2.56901 1.119141,2.51888 2.238281,5.037761 3.357422,7.556641 1.246149,2.777812 5.076085,0.180383 3.484924,-2.010541 -0.933777,-2.101304 -1.867553,-4.202608 -2.80133,-6.303912 4.504557,-0.844401 9.009115,-1.688802 13.513672,-2.533203 2.899967,-0.537907 1.336077,-4.969539 -1.318813,-3.820819 -4.621594,0.866706 -9.243187,1.733411 -13.864781,2.600116 C 20.066406,40.225261 18.947266,37.70638 17.828125,35.1875 17.497309,34.409707 16.63217,33.909056 15.792969,34.009766 Z"/>
  </g>
</svg>
